<svg width="121" height="29" viewBox="0 0 121 29" fill="none" xmlns="http://www.w3.org/2000/svg">
<path d="M7 7C5.34315 7 4 8.34315 4 10C4 10.5687 4.15822 11.1004 4.43304 11.5535C3.04727 11.8186 2 13.037 2 14.5C2 15.963 3.04727 17.1814 4.43304 17.4465M7 7C7 5.61929 8.11929 4.5 9.5 4.5C10.8807 4.5 12 5.61929 12 7V22C12 23.3807 10.8807 24.5 9.5 24.5C8.11929 24.5 7 23.3807 7 22C5.34315 22 4 20.6569 4 19C4 18.4313 4.15822 17.8996 4.43304 17.4465M7 7C7 7.81791 7.39278 8.54408 8 9.00018M4.43304 17.4465C4.78948 16.8588 5.34207 16.4032 6 16.1707" stroke="white" stroke-width="1.5" stroke-linecap="round" stroke-linejoin="round"/>
<path d="M17 22C18.6569 22 20 20.6568 20 19C20 18.4313 19.8418 17.8996 19.567 17.4465C20.9527 17.1814 22 15.963 22 14.5C22 13.037 20.9527 11.8186 19.567 11.5535M17 22C17 23.3807 15.8807 24.5 14.5 24.5C13.1193 24.5 12 23.3807 12 22V7C12 5.61929 13.1193 4.5 14.5 4.5C15.8807 4.5 17 5.61929 17 7C18.6569 7 20 8.34314 20 10C20 10.5687 19.8418 11.1004 19.567 11.5535M17 22C17 21.1821 16.6072 20.4559 16 19.9998M19.567 11.5535C19.2105 12.1412 18.6579 12.5967 18 12.8293" stroke="white" stroke-width="1.5" stroke-linecap="round" stroke-linejoin="round"/>
<path d="M45.336 24.216C44.088 24.216 42.952 24.016 41.928 23.616C40.92 23.2 40.048 22.608 39.312 21.84C38.576 21.056 38.008 20.12 37.608 19.032C37.224 17.944 37.032 16.728 37.032 15.384C37.032 13.976 37.24 12.712 37.656 11.592C38.072 10.472 38.664 9.52 39.432 8.736C40.2 7.952 41.12 7.352 42.192 6.936C43.28 6.52 44.48 6.312 45.792 6.312C47.248 6.312 48.544 6.544 49.68 7.008C50.816 7.456 51.744 8.104 52.464 8.952C53.2 9.8 53.664 10.824 53.856 12.024H51.192C51 11.32 50.656 10.712 50.16 10.2C49.68 9.688 49.064 9.288 48.312 9C47.576 8.712 46.736 8.568 45.792 8.568C44.496 8.568 43.4 8.848 42.504 9.408C41.608 9.968 40.92 10.76 40.44 11.784C39.976 12.792 39.744 13.976 39.744 15.336C39.744 16.36 39.88 17.288 40.152 18.12C40.424 18.952 40.816 19.656 41.328 20.232C41.856 20.808 42.488 21.248 43.224 21.552C43.976 21.856 44.808 22.008 45.72 22.008C46.808 22.008 47.768 21.808 48.6 21.408C49.448 20.992 50.104 20.416 50.568 19.68C51.048 18.928 51.288 18.048 51.288 17.04V16.032L51.936 16.632H45.216V14.64H54.048V24H51.96L51.816 20.664H51.648C51.392 21.368 50.952 21.992 50.328 22.536C49.704 23.064 48.96 23.48 48.096 23.784C47.248 24.072 46.328 24.216 45.336 24.216ZM56.7949 24V11.304H59.0029L59.1229 13.56H59.2429C59.5149 12.744 59.9869 12.136 60.6589 11.736C61.3309 11.336 62.0829 11.136 62.9149 11.136C63.0589 11.136 63.1869 11.144 63.2989 11.16C63.4269 11.16 63.5469 11.168 63.6589 11.184V13.512C63.5629 13.496 63.4429 13.488 63.2989 13.488C63.1709 13.488 63.0349 13.488 62.8909 13.488C62.1389 13.488 61.4989 13.616 60.9709 13.872C60.4429 14.128 60.0349 14.504 59.7469 15C59.4589 15.48 59.2909 16.064 59.2429 16.752V24H56.7949ZM65.4086 24V11.304H67.8806V24H65.4086ZM66.6566 9.36C66.2406 9.36 65.8966 9.248 65.6246 9.024C65.3526 8.8 65.2166 8.488 65.2166 8.088C65.2166 7.688 65.3526 7.376 65.6246 7.152C65.8966 6.928 66.2406 6.816 66.6566 6.816C67.0726 6.816 67.4166 6.928 67.6886 7.152C67.9606 7.376 68.0966 7.688 68.0966 8.088C68.0966 8.488 67.9606 8.8 67.6886 9.024C67.4166 9.248 67.0726 9.36 66.6566 9.36ZM75.3709 24.216C74.6029 24.216 73.8909 24.064 73.2349 23.76C72.5949 23.456 72.0429 23.024 71.5789 22.464C71.1149 21.904 70.7549 21.224 70.4989 20.424C70.2589 19.608 70.1389 18.68 70.1389 17.64C70.1389 16.264 70.3549 15.088 70.7869 14.112C71.2349 13.136 71.8509 12.392 72.6349 11.88C73.4189 11.352 74.3309 11.088 75.3709 11.088C76.0749 11.088 76.7149 11.2 77.2909 11.424C77.8669 11.648 78.3549 11.96 78.7549 12.36C79.1709 12.744 79.4669 13.208 79.6429 13.752H79.7629V6.504H82.2349V24H79.8829L79.7869 21.528H79.6429C79.3549 22.328 78.8349 22.976 78.0829 23.472C77.3309 23.968 76.4269 24.216 75.3709 24.216ZM76.2109 22.176C76.9789 22.176 77.6269 22 78.1549 21.648C78.6829 21.296 79.0829 20.832 79.3549 20.256C79.6269 19.68 79.7629 19.048 79.7629 18.36V16.92C79.7629 16.216 79.6189 15.576 79.3309 15C79.0589 14.424 78.6589 13.968 78.1309 13.632C77.6189 13.28 76.9949 13.104 76.2589 13.104C75.5069 13.104 74.8589 13.288 74.3149 13.656C73.7869 14.024 73.3789 14.544 73.0909 15.216C72.8189 15.888 72.6829 16.696 72.6829 17.64C72.6829 18.568 72.8189 19.376 73.0909 20.064C73.3629 20.752 73.7629 21.28 74.2909 21.648C74.8189 22 75.4589 22.176 76.2109 22.176ZM90.6623 24.216C89.7343 24.216 88.8863 24.064 88.1183 23.76C87.3663 23.456 86.7183 23.016 86.1743 22.44C85.6303 21.864 85.2063 21.176 84.9023 20.376C84.5983 19.576 84.4463 18.68 84.4463 17.688C84.4463 16.376 84.6943 15.232 85.1903 14.256C85.7023 13.264 86.4223 12.496 87.3503 11.952C88.2943 11.392 89.3983 11.112 90.6623 11.112C91.5903 11.112 92.4303 11.264 93.1823 11.568C93.9503 11.856 94.6063 12.288 95.1503 12.864C95.6943 13.44 96.1103 14.136 96.3983 14.952C96.7023 15.752 96.8543 16.656 96.8543 17.664C96.8543 18.96 96.6063 20.104 96.1103 21.096C95.6143 22.072 94.9023 22.84 93.9743 23.4C93.0463 23.944 91.9423 24.216 90.6623 24.216ZM90.6623 22.152C91.3983 22.152 92.0383 21.984 92.5823 21.648C93.1423 21.296 93.5743 20.784 93.8783 20.112C94.1823 19.44 94.3343 18.624 94.3343 17.664C94.3343 16.944 94.2463 16.312 94.0703 15.768C93.9103 15.208 93.6703 14.736 93.3503 14.352C93.0303 13.952 92.6463 13.656 92.1983 13.464C91.7503 13.256 91.2383 13.152 90.6623 13.152C89.9263 13.152 89.2783 13.328 88.7183 13.68C88.1743 14.032 87.7423 14.544 87.4223 15.216C87.1183 15.872 86.9663 16.696 86.9663 17.688C86.9663 18.392 87.0463 19.024 87.2063 19.584C87.3823 20.128 87.6303 20.592 87.9503 20.976C88.2863 21.36 88.6783 21.656 89.1263 21.864C89.5903 22.056 90.1023 22.152 90.6623 22.152ZM99.0546 24V11.304H101.263L101.383 13.56H101.503C101.775 12.744 102.247 12.136 102.919 11.736C103.591 11.336 104.343 11.136 105.175 11.136C105.319 11.136 105.447 11.144 105.559 11.16C105.687 11.16 105.807 11.168 105.919 11.184V13.512C105.823 13.496 105.703 13.488 105.559 13.488C105.431 13.488 105.295 13.488 105.151 13.488C104.399 13.488 103.759 13.616 103.231 13.872C102.703 14.128 102.295 14.504 102.007 15C101.719 15.48 101.551 16.064 101.503 16.752V24H99.0546ZM111.759 24.216C110.991 24.216 110.279 24.064 109.623 23.76C108.983 23.456 108.431 23.024 107.967 22.464C107.503 21.904 107.143 21.224 106.887 20.424C106.647 19.608 106.527 18.68 106.527 17.64C106.527 16.264 106.743 15.088 107.175 14.112C107.623 13.136 108.239 12.392 109.023 11.88C109.807 11.352 110.719 11.088 111.759 11.088C112.463 11.088 113.103 11.2 113.679 11.424C114.255 11.648 114.743 11.96 115.143 12.36C115.559 12.744 115.855 13.208 116.031 13.752H116.175L116.271 11.304H118.623V24H116.271L116.175 21.528H116.031C115.743 22.328 115.223 22.976 114.471 23.472C113.719 23.968 112.815 24.216 111.759 24.216ZM112.599 22.176C113.367 22.176 114.015 22 114.543 21.648C115.071 21.296 115.471 20.832 115.743 20.256C116.015 19.68 116.151 19.048 116.151 18.36V16.92C116.151 16.216 116.007 15.576 115.719 15C115.447 14.424 115.047 13.968 114.519 13.632C114.007 13.28 113.383 13.104 112.647 13.104C111.895 13.104 111.247 13.288 110.703 13.656C110.175 14.024 109.767 14.544 109.479 15.216C109.207 15.888 109.071 16.696 109.071 17.64C109.071 18.568 109.207 19.376 109.479 20.064C109.751 20.752 110.151 21.28 110.679 21.648C111.207 22 111.847 22.176 112.599 22.176Z" fill="white"/>
</svg>
